PathFileType	4	(X/Y/Z)	Run_300 02
DataRate	CameraRate	NumFrames	NumMarkers	Units	OrigDataRate	OrigDataStartFrame	OrigNumFrames
100	100	6	42	mm	100	75	128
Frame#	Time	LASI			RASI			LPSI			RTH1			RTH2			RTH3			LTH1			LTH2			LTH3			RTB1			RTB2			RTB3			LTB1			LTB2			LTB3			RCAL			RTOE			RMT5			LCAL			LTOE			LMT5			LACR			RACR			CLAV			C7			RUA1			RUA2			RUA3			RLEL			RMEL			LUA1			LUA2			LUA3			LLEL			RFAsuperior			RFAradius			RFAulna			LFAsuperior			LFAradius			LFAulna			LMEL			RPSI		
		X1	Y1	Z1	X2	Y2	Z2	X3	Y3	Z3	X4	Y4	Z4	X5	Y5	Z5	X6	Y6	Z6	X7	Y7	Z7	X8	Y8	Z8	X9	Y9	Z9	X10	Y10	Z10	X11	Y11	Z11	X12	Y12	Z12	X13	Y13	Z13	X14	Y14	Z14	X15	Y15	Z15	X16	Y16	Z16	X17	Y17	Z17	X18	Y18	Z18	X19	Y19	Z19	X20	Y20	Z20	X21	Y21	Z21	X22	Y22	Z22	X23	Y23	Z23	X24	Y24	Z24	X25	Y25	Z25	X26	Y26	Z26	X27	Y27	Z27	X28	Y28	Z28	X29	Y29	Z29	X30	Y30	Z30	X31	Y31	Z31	X32	Y32	Z32	X33	Y33	Z33	X34	Y34	Z34	X35	Y35	Z35	X36	Y36	Z36	X37	Y37	Z37	X38	Y38	Z38	X39	Y39	Z39	X40	Y40	Z40	X41	Y41	Z41	X42	Y42	Z42	

75	  0.750000	1260.450537	957.366692	-455.893043	1258.424258	967.526950	-194.547134	1088.733136	1008.809038	-374.773426	1238.012111	800.206645	-141.047812	1293.550723	708.137853	-154.712225	1264.450586	568.625195	-187.745237	1196.497227	799.976795	-507.895383	1290.318251	683.709295	-496.876952	1241.475078	560.380029	-498.088510	1287.894006	316.370872	-279.523100	1204.783640	236.321769	-242.987741	1191.857025	173.148540	-314.385782	1123.235593	371.842121	-427.316564	1058.165360	397.114499	-469.511773	984.882613	362.489032	-417.323933	1035.239807	109.298712	-323.343696	1269.728519	 71.525528	-323.268682	1245.887192	 54.988428	-246.394405	832.083377	452.279181	-398.548006	868.309139	212.280150	-388.665165	847.335421	237.895365	-475.755901	1272.332131	1489.597687	-458.676899	1283.958879	1438.673396	-112.998959	1327.947259	1401.261537	-263.414622	1217.673061	1501.811795	-283.751895	1222.350268	1301.999388	-44.700310	1151.609989	1299.924659	-38.468504	1159.759979	1229.743972	-27.200578	1123.335152	1162.593140	 -7.877829	1078.253995	1160.542386	-91.244772	1190.020805	1396.380550	-538.494114	1100.695110	1371.163793	-516.525350	1113.832297	1297.671654	-564.355115	1078.579630	1241.743340	-586.776949	1210.209257	1164.469882	-29.660525	1351.935658	1172.336088	-116.787827	1343.275734	1104.544408	-91.048431	1153.097104	1189.909778	-575.062304	1297.158185	1128.750104	-489.614626	1265.687517	1071.179414	-523.047998	1041.804923	1227.625856	-502.367146	1085.405075	1011.375956	-282.625493	
76	  0.760000	1259.213211	957.253301	-456.388174	1258.033273	965.668122	-195.429805	1087.756158	1009.527924	-374.065277	1233.168106	798.207812	-141.772140	1286.062545	704.110528	-155.651592	1251.686678	565.143901	-188.089573	1196.571974	800.705971	-508.801049	1298.199292	689.232562	-498.465868	1256.481865	564.078921	-499.644500	1265.345921	311.905928	-280.096369	1180.237920	234.321073	-243.627820	1164.624740	172.052614	-315.009262	1144.884334	372.928805	-428.355508	1079.472512	396.383747	-471.028587	1006.972921	358.953026	-419.047154	1006.061014	111.106907	-323.470364	1239.903297	 70.840124	-323.610685	1215.813008	 54.854602	-246.490451	849.868352	442.829571	-399.836612	897.656704	204.684220	-393.426970	876.163392	230.744355	-480.389573	1265.742318	1490.760625	-459.336536	1288.634240	1439.577276	-114.210802	1328.033296	1402.232392	-265.632069	1217.029498	1501.986589	-282.867261	1227.920077	1302.805094	-45.343858	1157.151076	1299.542942	-39.583394	1166.537043	1229.612884	-28.420299	1131.020361	1161.427068	 -9.336913	1086.647214	1160.032222	-93.059648	1178.697255	1400.624396	-537.321272	1090.411064	1376.833076	-512.226905	1099.998966	1304.017790	-562.331651	1062.140500	1249.283120	-584.337421	1217.532396	1164.549498	-31.842075	1357.742007	1180.120635	-122.274962	1351.740411	1112.075939	-97.549699	1134.674972	1194.461018	-576.491108	1282.116586	1131.778580	-496.677978	1247.636195	1074.894955	-528.646058	1028.823848	1235.513222	-498.699766	1085.330265	1012.258849	-282.257460	
77	  0.770000	1258.937552	958.197648	-455.861070	1257.728722	964.715189	-195.640773	1087.826462	1011.643435	-374.223572	1228.137031	797.200582	-142.792257	1277.698614	701.322714	-156.192176	1237.577984	562.849129	-188.234170	1198.238483	803.401399	-509.749117	1305.712976	696.752708	-499.463444	1270.080465	570.382303	-500.305997	1241.622766	308.649858	-280.560655	1154.649118	233.259115	-244.050756	1136.954091	171.567801	-315.420653	1166.381522	375.171516	-428.972559	1100.179403	396.057110	-471.749578	1029.368251	355.191843	-419.956882	977.029681	113.269715	-323.721816	1210.040425	 70.220530	-323.820513	1185.651786	 54.769091	-246.623687	867.306296	431.230718	-399.465378	928.946314	196.181278	-398.175107	906.376074	222.927270	-484.574588	1259.293174	1493.227840	-459.722414	1292.862387	1442.328204	-115.850874	1328.215656	1404.606755	-268.116606	1216.777440	1504.048488	-282.246710	1233.556402	1305.299598	-46.568916	1162.561686	1301.551210	-40.391283	1172.641863	1231.968155	-29.389269	1138.052154	1162.608644	-10.729707	1094.540723	1161.722448	-94.885679	1167.093485	1407.198714	-535.661062	1080.334767	1384.278482	-507.264056	1086.036948	1312.620462	-560.305910	1045.639687	1259.040273	-581.615704	1224.099031	1168.021753	-34.310629	1362.054171	1191.012346	-128.228358	1359.248093	1122.728975	-104.569274	1116.472272	1202.777060	-577.199324	1267.094925	1139.233280	-502.612776	1230.670581	1082.588266	-532.530866	1015.709092	1245.532962	-494.897091	1085.913797	1014.433737	-282.366819	
78	  0.780000	1259.584309	960.230329	-454.591272	1257.684450	964.966063	-195.315976	1088.730637	1015.127778	-374.851946	1223.082968	797.161576	-143.818032	1268.687729	699.628691	-156.862118	1222.131401	561.912958	-188.405755	1201.170819	807.774200	-510.639396	1312.777688	705.679594	-499.975496	1282.105424	578.468598	-500.356726	1216.875591	306.719854	-281.163058	1128.144966	233.323927	-244.277099	1109.001763	171.867453	-315.487959	1187.546250	378.426380	-429.484388	1120.161527	396.032630	-471.762103	1052.092188	351.232069	-420.359919	948.080483	115.958465	-323.826716	1180.219384	 69.671284	-323.889605	1155.487425	 54.820999	-246.762845	884.688573	417.541632	-397.860513	961.994417	187.228430	-402.563631	937.735184	214.516618	-488.069553	1253.212992	1497.117872	-460.003037	1296.429568	1446.722279	-117.798644	1328.303823	1408.237919	-270.917442	1216.491593	1507.440226	-282.094890	1239.213576	1309.315300	-48.248881	1168.013741	1305.452883	-41.113489	1178.621973	1236.267538	-30.068161	1145.086233	1165.659472	-11.864369	1101.261655	1164.978863	-95.974940	1155.994132	1415.627902	-533.442614	1071.058694	1393.239939	-501.663041	1072.577237	1323.348936	-557.964444	1030.051989	1270.837021	-578.347388	1230.626703	1174.508802	-37.170861	1365.349374	1204.131185	-134.060261	1365.994004	1135.641922	-111.473446	1099.895751	1214.720065	-576.719788	1252.732435	1149.994173	-507.183344	1214.995749	1093.363906	-534.537196	1002.734975	1257.164696	-490.971927	1086.827834	1017.688389	-282.633403	
79	  0.790000	1260.935635	963.513910	-453.062968	1258.012053	966.636709	-194.732137	1090.160862	1019.782646	-375.500786	1218.136372	798.099899	-144.673873	1259.385169	698.858900	-158.106393	1205.498980	562.497803	-188.743341	1204.776987	813.460201	-511.445372	1319.281388	715.551595	-500.174374	1292.772381	587.503911	-500.031377	1191.282829	306.300559	-281.763544	1100.996437	234.607610	-244.354932	1080.984874	173.024427	-315.203575	1208.230747	382.252568	-429.949998	1139.440776	396.139345	-471.223197	1074.948288	347.011537	-420.444160	919.280683	119.552288	-323.482494	1150.481687	 69.147436	-323.893082	1125.363520	 54.947481	-246.849315	902.453056	401.924612	-395.546804	996.477576	178.145508	-406.130805	969.934291	205.463856	-490.592259	1247.615286	1502.434790	-460.317495	1299.458836	1452.548593	-119.968276	1328.256139	1413.205599	-273.971775	1215.856145	1511.776432	-282.403361	1244.679078	1314.729403	-50.035368	1173.509096	1310.702671	-41.693053	1184.899592	1241.756276	-30.657983	1152.337043	1170.110684	-12.673566	1106.730360	1169.609484	-96.119927	1145.984840	1425.404248	-530.854792	1062.958499	1403.467182	-495.665557	1060.113714	1335.936354	-555.174077	1015.896488	1284.324668	-574.496016	1237.206282	1182.809538	-40.053011	1367.870773	1218.646445	-139.461047	1371.970995	1150.105867	-117.851177	1085.374630	1229.157667	-575.105340	1239.513272	1163.031104	-510.543267	1200.731530	1106.323453	-534.975341	990.524703	1270.025093	-486.842258	1087.793612	1021.696625	-283.011895	
80	  0.800000	1262.626735	968.221760	-451.630150	1258.719561	969.734640	-194.109396	1091.988214	1025.370166	-375.959535	1213.531133	800.012115	-145.499377	1250.063610	698.946531	-159.993248	1187.999705	564.670810	-189.228183	1208.604379	820.207508	-512.213208	1325.115209	726.092591	-500.142026	1302.390747	597.077946	-499.465291	1165.056313	307.505448	-281.819109	1073.555474	237.181533	-244.256838	1053.145785	175.070494	-314.557410	1228.311792	386.131398	-430.149036	1158.127116	396.101805	-470.278485	1097.604048	342.377757	-420.164119	890.917735	124.540470	-322.517995	1120.792822	 68.586246	-324.001959	1095.281817	 55.081118	-246.893813	920.978166	384.673105	-392.964925	1032.090297	169.141164	-408.370042	1002.830921	195.695569	-491.835663	1242.540459	1508.942356	-460.657336	1302.148234	1459.655280	-122.388174	1328.111839	1419.509234	-277.084240	1214.879981	1516.970495	-283.014692	1249.846788	1321.471524	-51.717942	1179.012683	1316.964424	-41.747339	1191.492874	1247.988991	-31.281707	1159.654809	1175.732150	-13.154859	1111.384154	1175.631062	-95.513808	1137.324422	1436.127972	-528.285636	1056.230803	1414.793702	-489.529073	1048.960412	1350.008821	-551.953072	1003.233374	1299.073596	-570.140522	1243.561687	1192.013222	-42.506526	1369.677912	1233.832042	-144.437352	1377.085866	1165.476845	-123.572445	1072.545552	1244.668681	-572.701846	1227.695874	1177.519249	-512.926233	1188.020128	1120.694075	-534.364472	979.825783	1283.956558	-482.306448	1088.909126	1026.289795	-283.496881	
